<svg width="30" height="38" viewBox="0 0 30 38" fill="none" xmlns="http://www.w3.org/2000/svg">
<path d="M3.99998 37.3333C2.99165 37.3333 2.12876 36.9746 1.41131 36.2572C0.692646 35.5385 0.333313 34.675 0.333313 33.6667V11.6667C0.333313 10.6583 0.692646 9.79545 1.41131 9.078C2.12876 8.35933 2.99165 8 3.99998 8H7.66665C7.66665 5.98333 8.3847 4.25695 9.82081 2.82083C11.2569 1.38472 12.9833 0.666668 15 0.666668C17.0166 0.666668 18.743 1.38472 20.1791 2.82083C21.6153 4.25695 22.3333 5.98333 22.3333 8H26C27.0083 8 27.8718 8.35933 28.5905 9.078C29.3079 9.79545 29.6666 10.6583 29.6666 11.6667V33.6667C29.6666 34.675 29.3079 35.5385 28.5905 36.2572C27.8718 36.9746 27.0083 37.3333 26 37.3333H3.99998ZM3.99998 33.6667H26V11.6667H22.3333V15.3333C22.3333 15.8528 22.1579 16.2879 21.8071 16.6387C21.4551 16.9907 21.0194 17.1667 20.5 17.1667C19.9805 17.1667 19.5454 16.9907 19.1946 16.6387C18.8426 16.2879 18.6666 15.8528 18.6666 15.3333V11.6667H11.3333V15.3333C11.3333 15.8528 11.1579 16.2879 10.8071 16.6387C10.4551 16.9907 10.0194 17.1667 9.49998 17.1667C8.98054 17.1667 8.54542 16.9907 8.19465 16.6387C7.84265 16.2879 7.66665 15.8528 7.66665 15.3333V11.6667H3.99998V33.6667ZM11.3333 8H18.6666C18.6666 6.99167 18.3079 6.12878 17.5905 5.41133C16.8718 4.69267 16.0083 4.33333 15 4.33333C13.9916 4.33333 13.1288 4.69267 12.4113 5.41133C11.6926 6.12878 11.3333 6.99167 11.3333 8Z" fill="white"/>
</svg>
