<svg width="27" height="27" viewBox="0 0 27 27" fill="none" xmlns="http://www.w3.org/2000/svg">
<path d="M26.6963 25.2244L21.0876 19.6276C23.0671 17.2705 24.0603 14.24 23.8602 11.1682C23.66 8.09639 22.2819 5.22047 20.0133 3.14022C17.7447 1.05998 14.7607 -0.0639589 11.6837 0.00281352C8.60667 0.0695859 5.67423 1.32192 3.49795 3.49862C1.32166 5.67531 0.0695726 8.60832 0.00281298 11.6859C-0.0639466 14.7635 1.05978 17.7481 3.13962 20.0171C5.21947 22.2862 8.09484 23.6645 11.1661 23.8647C14.2373 24.0649 17.2672 23.0715 19.6239 21.0916L25.2196 26.7014C25.4177 26.8929 25.6824 27 25.9579 27C26.2334 27 26.4982 26.8929 26.6963 26.7014C26.8908 26.5049 27 26.2395 27 25.9629C27 25.6863 26.8908 25.4209 26.6963 25.2244ZM2.1243 11.9709C2.1243 10.0235 2.70166 8.11986 3.78337 6.50066C4.86508 4.88146 6.40255 3.61944 8.20137 2.87421C10.0002 2.12897 11.9795 1.93398 13.8892 2.3139C15.7988 2.69382 17.5529 3.63158 18.9296 5.00859C20.3064 6.38561 21.2439 8.14004 21.6238 10.05C22.0036 11.96 21.8087 13.9397 21.0636 15.7389C20.3185 17.5381 19.0567 19.0758 17.4378 20.1577C15.8189 21.2397 13.9156 21.8171 11.9686 21.8171C9.3588 21.8137 6.85685 20.7752 5.01142 18.9295C3.16599 17.0837 2.12773 14.5812 2.1243 11.9709Z" fill="white"/>
</svg>
