<svg width="189" height="86" viewBox="0 0 189 86" fill="none" xmlns="http://www.w3.org/2000/svg">
<path d="M10.24 30C9.97333 30 9.74667 29.9067 9.56 29.72C9.37333 29.5333 9.28 29.3067 9.28 29.04V6.92H1.88C1.61333 6.92 1.38667 6.82667 1.2 6.64C1.01333 6.45333 0.92 6.22667 0.92 5.96V3C0.92 2.70667 1.01333 2.46667 1.2 2.28C1.38667 2.09333 1.61333 2 1.88 2H22.28C22.5733 2 22.8133 2.09333 23 2.28C23.1867 2.46667 23.28 2.70667 23.28 3V5.96C23.28 6.22667 23.1867 6.45333 23 6.64C22.8133 6.82667 22.5733 6.92 22.28 6.92H14.92V29.04C14.92 29.3067 14.8267 29.5333 14.64 29.72C14.4533 29.9067 14.2133 30 13.92 30H10.24ZM27.5844 30C27.3177 30 27.091 29.9067 26.9044 29.72C26.7177 29.5333 26.6244 29.3067 26.6244 29.04V10.16C26.6244 9.89333 26.7177 9.66667 26.9044 9.48C27.091 9.29333 27.3177 9.2 27.5844 9.2H30.9044C31.1977 9.2 31.4244 9.29333 31.5844 9.48C31.771 9.66667 31.8644 9.89333 31.8644 10.16V29.04C31.8644 29.3067 31.771 29.5333 31.5844 29.72C31.4244 29.9067 31.1977 30 30.9044 30H27.5844ZM27.4244 5.76C27.131 5.76 26.891 5.68 26.7044 5.52C26.5444 5.33333 26.4644 5.09333 26.4644 4.8V1.92C26.4644 1.65333 26.5444 1.42667 26.7044 1.24C26.891 1.05333 27.131 0.96 27.4244 0.96H31.0644C31.3577 0.96 31.5977 1.05333 31.7844 1.24C31.971 1.42667 32.0644 1.65333 32.0644 1.92V4.8C32.0644 5.09333 31.971 5.33333 31.7844 5.52C31.5977 5.68 31.3577 5.76 31.0644 5.76H27.4244ZM46.5713 38.8C44.6246 38.8 43.0246 38.5467 41.7713 38.04C40.5179 37.5333 39.5313 36.92 38.8113 36.2C38.0913 35.48 37.5713 34.76 37.2513 34.04C36.9579 33.3467 36.7979 32.8 36.7713 32.4C36.7446 32.1333 36.8246 31.8933 37.0113 31.68C37.2246 31.4933 37.4646 31.4 37.7313 31.4H41.2113C41.4779 31.4 41.6913 31.4533 41.8513 31.56C42.0113 31.6933 42.1446 31.92 42.2513 32.24C42.4113 32.5867 42.6246 32.96 42.8913 33.36C43.1579 33.76 43.5579 34.0933 44.0913 34.36C44.6513 34.6533 45.4113 34.8 46.3713 34.8C47.3846 34.8 48.2379 34.6533 48.9313 34.36C49.6246 34.0667 50.1446 33.5733 50.4913 32.88C50.8646 32.1867 51.0513 31.2267 51.0513 30V27.28C50.4113 28.0533 49.5846 28.68 48.5713 29.16C47.5846 29.64 46.3579 29.88 44.8913 29.88C43.4513 29.88 42.2113 29.6533 41.1713 29.2C40.1313 28.72 39.2646 28.0667 38.5713 27.24C37.8779 26.3867 37.3446 25.3867 36.9713 24.24C36.6246 23.0933 36.4246 21.8267 36.3713 20.44C36.3446 19.72 36.3446 19 36.3713 18.28C36.4246 16.9467 36.6246 15.7067 36.9713 14.56C37.3179 13.4133 37.8379 12.4133 38.5313 11.56C39.2513 10.68 40.1313 10 41.1713 9.52C42.2113 9.04 43.4513 8.8 44.8913 8.8C46.4113 8.8 47.6913 9.09333 48.7313 9.68C49.7713 10.24 50.6246 10.9467 51.2913 11.8V10.2C51.2913 9.90667 51.3846 9.66667 51.5713 9.48C51.7579 9.29333 51.9846 9.2 52.2513 9.2H55.4913C55.7579 9.2 55.9846 9.29333 56.1713 9.48C56.3579 9.66667 56.4513 9.90667 56.4513 10.2L56.4913 29.48C56.4913 31.4 56.1313 33.0533 55.4113 34.44C54.6913 35.8267 53.5979 36.8933 52.1313 37.64C50.6913 38.4133 48.8379 38.8 46.5713 38.8ZM46.3713 25.64C47.4646 25.64 48.3446 25.4 49.0113 24.92C49.6779 24.44 50.1713 23.8133 50.4913 23.04C50.8113 22.2667 50.9979 21.48 51.0513 20.68C51.0779 20.3333 51.0913 19.8933 51.0913 19.36C51.0913 18.8267 51.0779 18.4 51.0513 18.08C50.9979 17.2533 50.8113 16.4667 50.4913 15.72C50.1713 14.9467 49.6779 14.32 49.0113 13.84C48.3446 13.3333 47.4646 13.08 46.3713 13.08C45.2779 13.08 44.3979 13.3333 43.7313 13.84C43.0646 14.32 42.5846 14.96 42.2913 15.76C42.0246 16.56 41.8646 17.44 41.8113 18.4C41.7579 19.04 41.7579 19.6933 41.8113 20.36C41.8646 21.2933 42.0246 22.1733 42.2913 23C42.5846 23.8 43.0646 24.44 43.7313 24.92C44.3979 25.4 45.2779 25.64 46.3713 25.64ZM70.7797 30.4C67.8197 30.4 65.473 29.5467 63.7397 27.84C62.0064 26.1333 61.073 23.7067 60.9397 20.56C60.913 20.2933 60.8997 19.96 60.8997 19.56C60.8997 19.1333 60.913 18.8 60.9397 18.56C61.0464 16.56 61.4997 14.8267 62.2997 13.36C63.1264 11.8933 64.2597 10.7733 65.6997 10C67.1397 9.2 68.833 8.8 70.7797 8.8C72.9397 8.8 74.753 9.25333 76.2197 10.16C77.6864 11.04 78.793 12.28 79.5397 13.88C80.2864 15.4533 80.6597 17.28 80.6597 19.36V20.2C80.6597 20.4667 80.5664 20.6933 80.3797 20.88C80.193 21.0667 79.953 21.16 79.6597 21.16H66.3797C66.3797 21.16 66.3797 21.2 66.3797 21.28C66.3797 21.36 66.3797 21.4267 66.3797 21.48C66.4064 22.4133 66.5797 23.28 66.8997 24.08C67.2464 24.8533 67.7397 25.48 68.3797 25.96C69.0464 26.44 69.833 26.68 70.7397 26.68C71.4864 26.68 72.113 26.5733 72.6197 26.36C73.1264 26.12 73.5397 25.8533 73.8597 25.56C74.1797 25.2667 74.4064 25.0267 74.5397 24.84C74.7797 24.52 74.9664 24.3333 75.0997 24.28C75.2597 24.2 75.4864 24.16 75.7797 24.16H79.2197C79.4864 24.16 79.6997 24.24 79.8597 24.4C80.0464 24.56 80.1264 24.76 80.0997 25C80.073 25.4267 79.8464 25.9467 79.4197 26.56C79.0197 27.1733 78.433 27.7733 77.6597 28.36C76.8864 28.9467 75.913 29.44 74.7397 29.84C73.593 30.2133 72.273 30.4 70.7797 30.4ZM66.3797 17.8H75.2197V17.68C75.2197 16.64 75.0464 15.7333 74.6997 14.96C74.353 14.1867 73.8464 13.5733 73.1797 13.12C72.513 12.6667 71.713 12.44 70.7797 12.44C69.8464 12.44 69.0464 12.6667 68.3797 13.12C67.713 13.5733 67.2064 14.1867 66.8597 14.96C66.5397 15.7333 66.3797 16.64 66.3797 17.68V17.8ZM85.8656 30C85.599 30 85.3723 29.9067 85.1856 29.72C84.999 29.5333 84.9056 29.3067 84.9056 29.04V10.2C84.9056 9.90667 84.999 9.66667 85.1856 9.48C85.3723 9.29333 85.599 9.2 85.8656 9.2H89.1056C89.3723 9.2 89.599 9.29333 89.7856 9.48C89.999 9.66667 90.1056 9.90667 90.1056 10.2V11.84C90.719 10.9867 91.5056 10.3333 92.4656 9.88C93.4523 9.42667 94.5856 9.2 95.8656 9.2H97.5056C97.799 9.2 98.0256 9.29333 98.1856 9.48C98.3723 9.66667 98.4656 9.89333 98.4656 10.16V13.04C98.4656 13.3067 98.3723 13.5333 98.1856 13.72C98.0256 13.9067 97.799 14 97.5056 14H94.3856C93.1056 14 92.1056 14.36 91.3856 15.08C90.6923 15.8 90.3456 16.7867 90.3456 18.04V29.04C90.3456 29.3067 90.2523 29.5333 90.0656 29.72C89.879 29.9067 89.639 30 89.3456 30H85.8656ZM4.08 77C3.81333 77 3.58667 76.9067 3.4 76.72C3.21333 76.5333 3.12 76.3067 3.12 76.04V50C3.12 49.7067 3.21333 49.4667 3.4 49.28C3.58667 49.0933 3.81333 49 4.08 49H21.68C21.9733 49 22.2133 49.0933 22.4 49.28C22.5867 49.4667 22.68 49.7067 22.68 50V52.64C22.68 52.9067 22.5867 53.1333 22.4 53.32C22.2133 53.5067 21.9733 53.6 21.68 53.6H8.52V60.68H20.8C21.0933 60.68 21.3333 60.7733 21.52 60.96C21.7067 61.12 21.8 61.3467 21.8 61.64V64.12C21.8 64.4133 21.7067 64.6533 21.52 64.84C21.3333 65 21.0933 65.08 20.8 65.08H8.52V72.4H22C22.2933 72.4 22.5333 72.4933 22.72 72.68C22.9067 72.8667 23 73.1067 23 73.4V76.04C23 76.3067 22.9067 76.5333 22.72 76.72C22.5333 76.9067 22.2933 77 22 77H4.08ZM26.6428 77C26.4028 77 26.1895 76.92 26.0028 76.76C25.8428 76.5733 25.7628 76.36 25.7628 76.12C25.7628 76.04 25.7761 75.9467 25.8028 75.84C25.8561 75.7333 25.9361 75.6 26.0428 75.44L32.8428 66.32L26.5228 57.76C26.4428 57.6267 26.3761 57.5067 26.3228 57.4C26.2961 57.2933 26.2828 57.1867 26.2828 57.08C26.2828 56.84 26.3628 56.64 26.5228 56.48C26.7095 56.2933 26.9228 56.2 27.1628 56.2H30.6428C30.9628 56.2 31.2028 56.28 31.3628 56.44C31.5228 56.6 31.6428 56.7467 31.7228 56.88L36.2428 62.88L40.7628 56.88C40.8695 56.7467 40.9895 56.6 41.1228 56.44C41.2828 56.28 41.5228 56.2 41.8428 56.2H45.1628C45.4028 56.2 45.6028 56.2933 45.7628 56.48C45.9495 56.64 46.0428 56.8267 46.0428 57.04C46.0428 57.1733 46.0161 57.2933 45.9628 57.4C45.9361 57.5067 45.8828 57.6267 45.8028 57.76L39.4028 66.4L46.2428 75.44C46.3495 75.6 46.4161 75.7333 46.4428 75.84C46.4961 75.9467 46.5228 76.04 46.5228 76.12C46.5228 76.36 46.4295 76.5733 46.2428 76.76C46.0828 76.92 45.8828 77 45.6428 77H42.0028C41.7095 77 41.4828 76.9333 41.3228 76.8C41.1628 76.64 41.0295 76.4933 40.9228 76.36L36.1228 70L31.2428 76.36C31.1361 76.4933 31.0028 76.64 30.8428 76.8C30.7095 76.9333 30.4828 77 30.1628 77H26.6428ZM58.4369 77.4C56.5169 77.4 54.8235 77.04 53.3569 76.32C51.9169 75.6 50.7835 74.56 49.9569 73.2C49.1569 71.8133 48.7169 70.1467 48.6369 68.2C48.6102 67.8 48.5969 67.28 48.5969 66.64C48.5969 65.9733 48.6102 65.4267 48.6369 65C48.7169 63.0533 49.1569 61.4 49.9569 60.04C50.7835 58.6533 51.9169 57.6 53.3569 56.88C54.8235 56.16 56.5169 55.8 58.4369 55.8C60.1435 55.8 61.5969 56.04 62.7969 56.52C63.9969 57 64.9835 57.6 65.7569 58.32C66.5302 59.04 67.1035 59.8 67.4769 60.6C67.8769 61.3733 68.0902 62.08 68.1169 62.72C68.1435 63.0133 68.0502 63.2533 67.8369 63.44C67.6502 63.6 67.4235 63.68 67.1569 63.68H63.6369C63.3702 63.68 63.1569 63.6133 62.9969 63.48C62.8635 63.3467 62.7302 63.1467 62.5969 62.88C62.1969 61.8133 61.6635 61.0667 60.9969 60.64C60.3569 60.1867 59.5302 59.96 58.5169 59.96C57.1835 59.96 56.1169 60.3867 55.3169 61.24C54.5435 62.0667 54.1302 63.3867 54.0769 65.2C54.0235 66.2133 54.0235 67.1467 54.0769 68C54.1302 69.84 54.5435 71.1733 55.3169 72C56.1169 72.8267 57.1835 73.24 58.5169 73.24C59.5569 73.24 60.3969 73.0267 61.0369 72.6C61.6769 72.1467 62.1969 71.3867 62.5969 70.32C62.7302 70.0533 62.8635 69.8533 62.9969 69.72C63.1569 69.5867 63.3702 69.52 63.6369 69.52H67.1569C67.4235 69.52 67.6502 69.6133 67.8369 69.8C68.0502 69.96 68.1435 70.1867 68.1169 70.48C68.0902 70.96 67.9569 71.5067 67.7169 72.12C67.5035 72.7067 67.1435 73.32 66.6369 73.96C66.1569 74.5733 65.5435 75.1467 64.7969 75.68C64.0502 76.1867 63.1435 76.6 62.0769 76.92C61.0369 77.24 59.8235 77.4 58.4369 77.4ZM73.2884 77C73.0218 77 72.7951 76.9067 72.6084 76.72C72.4218 76.5333 72.3284 76.3067 72.3284 76.04V49.56C72.3284 49.2933 72.4218 49.0667 72.6084 48.88C72.7951 48.6933 73.0218 48.6 73.2884 48.6H76.8484C77.1418 48.6 77.3684 48.6933 77.5284 48.88C77.7151 49.0667 77.8084 49.2933 77.8084 49.56V58.68C78.5284 57.8267 79.4084 57.1333 80.4484 56.6C81.4884 56.0667 82.7684 55.8 84.2884 55.8C85.9151 55.8 87.3284 56.1733 88.5284 56.92C89.7551 57.64 90.7018 58.6667 91.3684 60C92.0351 61.3333 92.3684 62.9333 92.3684 64.8V76.04C92.3684 76.3067 92.2751 76.5333 92.0884 76.72C91.9018 76.9067 91.6751 77 91.4084 77H87.8084C87.5418 77 87.3151 76.9067 87.1284 76.72C86.9418 76.5333 86.8484 76.3067 86.8484 76.04V65.04C86.8484 63.4933 86.4618 62.28 85.6884 61.4C84.9418 60.52 83.8484 60.08 82.4084 60.08C81.0218 60.08 79.9018 60.52 79.0484 61.4C78.2218 62.28 77.8084 63.4933 77.8084 65.04V76.04C77.8084 76.3067 77.7151 76.5333 77.5284 76.72C77.3684 76.9067 77.1418 77 76.8484 77H73.2884ZM103.485 77.4C102.098 77.4 100.845 77.1333 99.7247 76.6C98.6047 76.04 97.7114 75.3067 97.0447 74.4C96.4047 73.4667 96.0847 72.4267 96.0847 71.28C96.0847 69.4133 96.8314 67.9333 98.3247 66.84C99.8447 65.72 101.845 64.9733 104.325 64.6L109.805 63.8V62.96C109.805 61.84 109.525 60.9733 108.965 60.36C108.405 59.7467 107.445 59.44 106.085 59.44C105.125 59.44 104.338 59.64 103.725 60.04C103.138 60.4133 102.698 60.92 102.405 61.56C102.191 61.9067 101.885 62.08 101.485 62.08H98.3247C98.0314 62.08 97.8047 62 97.6447 61.84C97.5114 61.68 97.4447 61.4667 97.4447 61.2C97.4714 60.7733 97.6447 60.2533 97.9647 59.64C98.2847 59.0267 98.7914 58.44 99.4847 57.88C100.178 57.2933 101.071 56.8 102.165 56.4C103.258 56 104.578 55.8 106.125 55.8C107.805 55.8 109.218 56.0133 110.365 56.44C111.538 56.84 112.471 57.3867 113.165 58.08C113.858 58.7733 114.365 59.5867 114.685 60.52C115.005 61.4533 115.165 62.44 115.165 63.48V76.04C115.165 76.3067 115.071 76.5333 114.885 76.72C114.698 76.9067 114.471 77 114.205 77H110.965C110.671 77 110.431 76.9067 110.245 76.72C110.085 76.5333 110.005 76.3067 110.005 76.04V74.48C109.658 74.9867 109.191 75.4667 108.605 75.92C108.018 76.3467 107.298 76.7067 106.445 77C105.618 77.2667 104.631 77.4 103.485 77.4ZM104.845 73.6C105.778 73.6 106.618 73.4 107.365 73C108.138 72.6 108.738 71.9867 109.165 71.16C109.618 70.3067 109.845 69.24 109.845 67.96V67.12L105.845 67.76C104.271 68 103.098 68.3867 102.325 68.92C101.551 69.4533 101.165 70.1067 101.165 70.88C101.165 71.4667 101.338 71.9733 101.685 72.4C102.058 72.8 102.525 73.1067 103.085 73.32C103.645 73.5067 104.231 73.6 104.845 73.6ZM121.256 77C120.99 77 120.763 76.9067 120.576 76.72C120.39 76.5333 120.296 76.3067 120.296 76.04V57.16C120.296 56.8933 120.39 56.6667 120.576 56.48C120.763 56.2933 120.99 56.2 121.256 56.2H124.536C124.803 56.2 125.03 56.2933 125.216 56.48C125.403 56.6667 125.496 56.8933 125.496 57.16V58.8C126.19 57.9467 127.07 57.24 128.136 56.68C129.23 56.0933 130.576 55.8 132.176 55.8C133.803 55.8 135.216 56.1733 136.416 56.92C137.616 57.64 138.536 58.6667 139.176 60C139.843 61.3333 140.176 62.9333 140.176 64.8V76.04C140.176 76.3067 140.083 76.5333 139.896 76.72C139.71 76.9067 139.483 77 139.216 77H135.696C135.43 77 135.203 76.9067 135.016 76.72C134.83 76.5333 134.736 76.3067 134.736 76.04V65.04C134.736 63.4933 134.35 62.28 133.576 61.4C132.83 60.52 131.736 60.08 130.296 60.08C128.91 60.08 127.803 60.52 126.976 61.4C126.15 62.28 125.736 63.4933 125.736 65.04V76.04C125.736 76.3067 125.643 76.5333 125.456 76.72C125.27 76.9067 125.043 77 124.776 77H121.256ZM154.657 85.8C152.711 85.8 151.111 85.5467 149.857 85.04C148.604 84.5333 147.617 83.92 146.897 83.2C146.177 82.48 145.657 81.76 145.337 81.04C145.044 80.3467 144.884 79.8 144.857 79.4C144.831 79.1333 144.911 78.8933 145.097 78.68C145.311 78.4933 145.551 78.4 145.817 78.4H149.297C149.564 78.4 149.777 78.4533 149.937 78.56C150.097 78.6933 150.231 78.92 150.337 79.24C150.497 79.5867 150.711 79.96 150.977 80.36C151.244 80.76 151.644 81.0933 152.177 81.36C152.737 81.6533 153.497 81.8 154.457 81.8C155.471 81.8 156.324 81.6533 157.017 81.36C157.711 81.0667 158.231 80.5733 158.577 79.88C158.951 79.1867 159.137 78.2267 159.137 77V74.28C158.497 75.0533 157.671 75.68 156.657 76.16C155.671 76.64 154.444 76.88 152.977 76.88C151.537 76.88 150.297 76.6533 149.257 76.2C148.217 75.72 147.351 75.0667 146.657 74.24C145.964 73.3867 145.431 72.3867 145.057 71.24C144.711 70.0933 144.511 68.8267 144.457 67.44C144.431 66.72 144.431 66 144.457 65.28C144.511 63.9467 144.711 62.7067 145.057 61.56C145.404 60.4133 145.924 59.4133 146.617 58.56C147.337 57.68 148.217 57 149.257 56.52C150.297 56.04 151.537 55.8 152.977 55.8C154.497 55.8 155.777 56.0933 156.817 56.68C157.857 57.24 158.711 57.9467 159.377 58.8V57.2C159.377 56.9067 159.471 56.6667 159.657 56.48C159.844 56.2933 160.071 56.2 160.337 56.2H163.577C163.844 56.2 164.071 56.2933 164.257 56.48C164.444 56.6667 164.537 56.9067 164.537 57.2L164.577 76.48C164.577 78.4 164.217 80.0533 163.497 81.44C162.777 82.8267 161.684 83.8933 160.217 84.64C158.777 85.4133 156.924 85.8 154.657 85.8ZM154.457 72.64C155.551 72.64 156.431 72.4 157.097 71.92C157.764 71.44 158.257 70.8133 158.577 70.04C158.897 69.2667 159.084 68.48 159.137 67.68C159.164 67.3333 159.177 66.8933 159.177 66.36C159.177 65.8267 159.164 65.4 159.137 65.08C159.084 64.2533 158.897 63.4667 158.577 62.72C158.257 61.9467 157.764 61.32 157.097 60.84C156.431 60.3333 155.551 60.08 154.457 60.08C153.364 60.08 152.484 60.3333 151.817 60.84C151.151 61.32 150.671 61.96 150.377 62.76C150.111 63.56 149.951 64.44 149.897 65.4C149.844 66.04 149.844 66.6933 149.897 67.36C149.951 68.2933 150.111 69.1733 150.377 70C150.671 70.8 151.151 71.44 151.817 71.92C152.484 72.4 153.364 72.64 154.457 72.64ZM178.866 77.4C175.906 77.4 173.559 76.5467 171.826 74.84C170.092 73.1333 169.159 70.7067 169.026 67.56C168.999 67.2933 168.986 66.96 168.986 66.56C168.986 66.1333 168.999 65.8 169.026 65.56C169.132 63.56 169.586 61.8267 170.386 60.36C171.212 58.8933 172.346 57.7733 173.786 57C175.226 56.2 176.919 55.8 178.866 55.8C181.026 55.8 182.839 56.2533 184.306 57.16C185.772 58.04 186.879 59.28 187.626 60.88C188.372 62.4533 188.746 64.28 188.746 66.36V67.2C188.746 67.4667 188.652 67.6933 188.466 67.88C188.279 68.0667 188.039 68.16 187.746 68.16H174.466C174.466 68.16 174.466 68.2 174.466 68.28C174.466 68.36 174.466 68.4267 174.466 68.48C174.492 69.4133 174.666 70.28 174.986 71.08C175.332 71.8533 175.826 72.48 176.466 72.96C177.132 73.44 177.919 73.68 178.826 73.68C179.572 73.68 180.199 73.5733 180.706 73.36C181.212 73.12 181.626 72.8533 181.946 72.56C182.266 72.2667 182.492 72.0267 182.626 71.84C182.866 71.52 183.052 71.3333 183.186 71.28C183.346 71.2 183.572 71.16 183.866 71.16H187.306C187.572 71.16 187.786 71.24 187.946 71.4C188.132 71.56 188.212 71.76 188.186 72C188.159 72.4267 187.932 72.9467 187.506 73.56C187.106 74.1733 186.519 74.7733 185.746 75.36C184.972 75.9467 183.999 76.44 182.826 76.84C181.679 77.2133 180.359 77.4 178.866 77.4ZM174.466 64.8H183.306V64.68C183.306 63.64 183.132 62.7333 182.786 61.96C182.439 61.1867 181.932 60.5733 181.266 60.12C180.599 59.6667 179.799 59.44 178.866 59.44C177.932 59.44 177.132 59.6667 176.466 60.12C175.799 60.5733 175.292 61.1867 174.946 61.96C174.626 62.7333 174.466 63.64 174.466 64.68V64.8Z" fill="#F56600"/>
</svg>
